<svg width="36" height="24" viewBox="0 0 36 24" fill="none" xmlns="http://www.w3.org/2000/svg">
<g clip-path="url(#clip0_804_60)">
<path d="M28.9567 10.147C28.9042 12.257 27.2268 14.8628 24.9201 14.8628H21.1718C20.3069 14.8627 19.4419 14.0375 19.4419 12.5049C19.4419 10.9722 20.3069 10.147 21.1718 10.147H28.9567ZM28.9567 10.147C29.0007 8.37913 27.2268 5.43119 24.9201 5.43119H10.6478C8.77365 5.43119 5.02538 6.66908 5.02538 12.7996C5.02538 18.9302 11.0803 20.168 13.9636 20.168H30.3984C32.1283 20.168 34.435 18.2227 34.435 15.1575C34.435 12.0922 32.1283 10.147 30.3984 10.147H28.9567ZM18.7211 8.37857H11.5128C9.68155 8.37857 8.19702 6.86104 8.19702 4.98908C8.19702 3.11713 9.68155 1.59961 11.5128 1.59961H18.7211C20.5523 1.59961 22.0368 3.11713 22.0368 4.98908C22.0368 6.86104 20.5523 8.37857 18.7211 8.37857ZM12.0895 22.5259H4.88122C3.04996 22.5259 1.56543 21.0084 1.56543 19.1365C1.56543 17.2645 3.04996 15.747 4.88122 15.747H12.0895C13.9207 15.747 15.4052 17.2645 15.4052 19.1365C15.4052 21.0084 13.9207 22.5259 12.0895 22.5259Z" stroke="#EEEEF0" stroke-width="2"/>
</g>
<defs>
<clipPath id="clip0_804_60">
<rect width="36" height="24" fill="white"/>
</clipPath>
</defs>
</svg>
